<svg width="15" height="14" viewBox="0 0 15 14" fill="none" xmlns="http://www.w3.org/2000/svg">
<path d="M12.2744 8.758C11.7684 8.25849 11.1368 8.25849 10.6341 8.758C10.2506 9.13828 9.86706 9.51855 9.49001 9.90527C9.38688 10.0116 9.29987 10.0342 9.17418 9.96328C8.92604 9.82793 8.66178 9.71836 8.4233 9.57011C7.31148 8.87079 6.38013 7.97167 5.55513 6.95975C5.14585 6.45702 4.78169 5.91883 4.5271 5.31297C4.47554 5.19051 4.4852 5.10994 4.58511 5.01004C4.9686 4.63943 5.34243 4.25916 5.71949 3.87888C6.24478 3.35037 6.24478 2.73161 5.71626 2.19987C5.41656 1.89694 5.11685 1.60046 4.81714 1.29753C4.50776 0.988151 4.20161 0.675553 3.88901 0.369399C3.38305 -0.123669 2.75141 -0.123669 2.24867 0.372622C1.86196 0.752897 1.49135 1.14284 1.09818 1.51667C0.734022 1.86149 0.55033 2.28366 0.511658 2.77673C0.450428 3.57918 0.64701 4.3365 0.924159 5.07449C1.49135 6.60204 2.35502 7.95878 3.40239 9.20273C4.81714 10.885 6.50582 12.2159 8.48131 13.1763C9.37077 13.6081 10.2924 13.94 11.2947 13.9948C11.9843 14.0335 12.5838 13.8595 13.0639 13.3213C13.3927 12.9539 13.7633 12.6188 14.1113 12.2675C14.6269 11.7454 14.6302 11.1138 14.1178 10.5981C13.5054 9.98261 12.8899 9.37031 12.2744 8.758Z" fill="#929AA2"/>
</svg>
