<svg width="46" height="46" viewBox="0 0 46 46" fill="none" xmlns="http://www.w3.org/2000/svg">
<g clip-path="url(#clip0)">
<path d="M37.7172 25.9973H8.28279C3.7083 25.9973 0 22.2889 0 17.7146V16.8839C0 12.3094 3.7083 8.60107 8.28279 8.60107H37.7171C42.2916 8.60107 45.9999 12.3094 45.9999 16.8839V17.7146C46 22.2889 42.2916 25.9973 37.7172 25.9973Z" fill="#E2EAF2"/>
<path d="M37.7172 8.60107H35.1719C39.7464 8.60107 43.4547 12.3094 43.4547 16.8839V17.7146C43.4547 22.289 39.7463 25.9973 35.1719 25.9973H37.7172C42.2916 25.9973 46 22.2889 46 17.7146V16.8839C46 12.3095 42.2916 8.60107 37.7172 8.60107V8.60107Z" fill="#565E66"/>
<path d="M39.741 44.7058H6.25896C2.80223 44.7058 0 41.9035 0 38.4468V26.1936C0 25.2106 0.796914 24.4136 1.78007 24.4136H44.2199C45.203 24.4136 46 25.2105 46 26.1936V38.4468C46 41.9035 43.1978 44.7058 39.741 44.7058V44.7058Z" fill="white"/>
<path d="M44.22 24.4136H41.9524C42.9355 24.4136 43.7325 25.2105 43.7325 26.1936V38.4468C43.7325 41.9035 40.9302 44.7058 37.4735 44.7058H39.7411C43.1978 44.7058 46 41.9035 46 38.4468V26.1936C46 25.2105 45.203 24.4136 44.22 24.4136V24.4136Z" fill="#E2EAF2"/>
<path d="M17.7836 11.1692L15.7296 11.5496C14.963 11.6915 14.2554 11.103 14.2554 10.3234L12.4622 8.98723V5.20076L14.2554 4.01132C14.2554 3.23165 14.9629 2.64318 15.7296 2.78513L17.7836 3.16553C19.1976 3.42733 20.2234 4.66062 20.2234 6.09857V8.23613C20.2233 9.67408 19.1975 10.9074 17.7836 11.1692Z" fill="#A6AEB6"/>
<path d="M17.7836 3.16531L15.7295 2.785C15.4029 2.72454 15.0875 2.79749 14.8325 2.96056L15.9383 3.16531C17.3523 3.42711 18.3781 4.6604 18.3781 6.09844V8.236C18.3781 9.67395 17.3523 10.9072 15.9383 11.169L14.8325 11.3738C15.0875 11.5369 15.4029 11.6099 15.7295 11.5493L17.7836 11.1689C19.1974 10.9071 20.2234 9.67386 20.2234 8.23591V6.09844C20.2234 4.66049 19.1974 3.4272 17.7836 3.16531Z" fill="#929AA2"/>
<path d="M11.6417 20.2419L10.7328 20.7667C10.0085 21.1849 9.08224 20.9367 8.66402 20.2124L2.47522 9.49304L6.00725 7.45386L12.196 18.1732C12.6143 18.8975 12.366 19.8237 11.6417 20.2419V20.2419Z" fill="#929AA2"/>
<path d="M6.00725 7.45386L2.47522 9.49304L5.53215 14.7878C5.85649 14.8501 6.19394 14.8738 6.53966 14.8523C7.86387 14.7702 8.92861 14.5998 9.99415 14.3593L6.00725 7.45386Z" fill="#7E868E"/>
<path d="M12.8098 11.8028C10.5229 12.4355 8.96715 12.8821 6.53966 13.0326C4.23481 13.1755 2.28601 11.3477 2.28601 9.0384V5.29622C2.28601 2.98688 4.23472 1.1591 6.53966 1.30204C8.96715 1.45253 10.5229 1.89914 12.8099 2.53182C14.2103 2.91923 15.181 4.1915 15.181 5.64455V8.68998C15.181 10.143 14.2103 11.4154 12.8098 11.8028Z" fill="white"/>
<path d="M12.8098 2.53192C10.5229 1.89924 8.96716 1.45263 6.53958 1.30214C6.19611 1.28085 5.8609 1.30421 5.53854 1.36548C7.52984 1.55757 8.98198 1.97166 11.0071 2.53192C12.4075 2.91933 13.3782 4.19161 13.3782 5.64465V8.69008C13.3782 10.1431 12.4075 11.4154 11.007 11.8028C8.98198 12.363 7.52975 12.7772 5.53845 12.9692C5.86081 13.0304 6.19611 13.0538 6.53949 13.0325C8.96698 12.882 10.5227 12.4354 12.8096 11.8027C14.2101 11.4153 15.1808 10.143 15.1808 8.68999V5.64465C15.181 4.1917 14.2103 2.91933 12.8098 2.53192V2.53192Z" fill="#E2EAF2"/>
<path d="M7.91867 5.62899H5.9431C5.55964 5.62899 5.24896 5.31822 5.24896 4.93486C5.24896 4.55149 5.55973 4.24072 5.9431 4.24072H7.91867C8.30212 4.24072 8.6128 4.55149 8.6128 4.93486C8.6128 5.31822 8.30203 5.62899 7.91867 5.62899Z" fill="#BAC2CA"/>
<path d="M28.2164 11.1692L30.2704 11.5496C31.0371 11.6915 31.7446 11.103 31.7446 10.3234L33.5379 8.98723V5.20076L31.7446 4.01132C31.7446 3.23165 31.0371 2.64318 30.2704 2.78513L28.2164 3.16553C26.8025 3.42733 25.7766 4.66062 25.7766 6.09857V8.23613C25.7766 9.67408 26.8025 10.9074 28.2164 11.1692Z" fill="#A6AEB6"/>
<path d="M31.7446 4.01132C31.7446 3.23165 31.0371 2.64318 30.2704 2.78513L29.0542 3.01037C29.3582 3.23561 29.5604 3.59561 29.5604 4.01132V10.3234C29.5604 10.7391 29.3581 11.0991 29.0542 11.3243L30.2704 11.5496C31.0371 11.6915 31.7446 11.103 31.7446 10.3234L33.5379 8.98723V5.20076L31.7446 4.01132Z" fill="#929AA2"/>
<path d="M34.3583 20.2419L35.2672 20.7667C35.9915 21.1849 36.9178 20.9367 37.336 20.2124L43.5248 9.49304L39.9928 7.45386L33.804 18.1732C33.3858 18.8975 33.634 19.8237 34.3583 20.2419V20.2419Z" fill="#929AA2"/>
<path d="M39.9928 7.45386L43.5248 9.49304L40.4679 14.7878C40.1435 14.8501 39.8061 14.8738 39.4604 14.8523C38.1361 14.7702 37.0714 14.5998 36.0059 14.3593L39.9928 7.45386Z" fill="#7E868E"/>
<path d="M33.1902 11.8028C35.4771 12.4355 37.0328 12.8821 39.4603 13.0326C41.7652 13.1755 43.714 11.3477 43.714 9.0384V5.29622C43.714 2.98688 41.7653 1.1591 39.4603 1.30204C37.0328 1.45253 35.4771 1.89914 33.1901 2.53182C31.7897 2.91923 30.819 4.1915 30.819 5.64455V8.68998C30.819 10.143 31.7897 11.4154 33.1902 11.8028Z" fill="white"/>
<path d="M39.4604 1.30203C39.1927 1.31865 38.9371 1.3394 38.6885 1.36312C40.5359 1.70794 41.9543 3.32639 41.9543 5.2963V9.03838C41.9543 11.0083 40.5359 12.6267 38.6885 12.9716C38.9372 12.9952 39.1928 13.016 39.4604 13.0327C41.7653 13.1756 43.7141 11.3478 43.7141 9.03847V5.29621C43.7141 2.98696 41.7654 1.15918 39.4604 1.30203V1.30203Z" fill="#E2EAF2"/>
<path d="M40.057 5.62899H38.0815C37.698 5.62899 37.3873 5.31822 37.3873 4.93486C37.3873 4.55149 37.6981 4.24072 38.0815 4.24072H40.057C40.4405 4.24072 40.7512 4.55149 40.7512 4.93486C40.7512 5.31822 40.4404 5.62899 40.057 5.62899Z" fill="#BAC2CA"/>
<path d="M28.1971 27.3356H17.8029C17.4938 27.3356 17.212 27.1583 17.078 26.8797L15.893 24.4136H30.1068L28.9218 26.8797C28.788 27.1584 28.5063 27.3356 28.1971 27.3356Z" fill="#A6AEB6"/>
<path d="M25.3381 33.9491H20.662C20.2785 33.9491 19.9678 33.6383 19.9678 33.2549C19.9678 32.8715 20.2786 32.5608 20.662 32.5608H25.3381C25.7215 32.5608 26.0322 32.8716 26.0322 33.2549C26.0322 33.6384 25.7214 33.9491 25.3381 33.9491Z" fill="#5D6AFB"/>
</g>
<defs>
<clipPath id="clip0">
<rect width="46" height="46" fill="white"/>
</clipPath>
</defs>
</svg>
