<svg width="25" height="25" viewBox="0 0 25 25" fill="none" xmlns="http://www.w3.org/2000/svg">
<path fill-rule="evenodd" clip-rule="evenodd" d="M12.5 23.9584C6.17173 23.9584 1.04166 18.8283 1.04166 12.5001C1.04166 6.17182 6.17173 1.04175 12.5 1.04175C18.8283 1.04175 23.9583 6.17182 23.9583 12.5001C23.9583 18.8283 18.8283 23.9584 12.5 23.9584ZM20.2078 17.8383C21.259 16.3233 21.875 14.4836 21.875 12.5001C21.875 7.32241 17.6777 3.12508 12.5 3.12508C7.32232 3.12508 3.12499 7.32241 3.12499 12.5001C3.12499 14.4836 3.74101 16.3233 4.79218 17.8383C5.96452 16.2897 8.71937 15.6251 12.5 15.6251C16.2806 15.6251 19.0355 16.2897 20.2078 17.8383ZM18.7132 19.5207C18.4083 18.4244 16.2181 17.7084 12.5 17.7084C8.78188 17.7084 6.59166 18.4244 6.28678 19.5207C7.94093 20.9857 10.1166 21.8751 12.5 21.8751C14.8834 21.8751 17.0591 20.9857 18.7132 19.5207ZM12.5 15.6251C10.1676 15.6251 8.33332 13.9869 8.33332 10.4167C8.33332 8.079 9.97822 6.25008 12.5 6.25008C15.0148 6.25008 16.6667 8.25173 16.6667 10.6251C16.6667 14.0413 14.8105 15.6251 12.5 15.6251ZM10.4167 10.4167C10.4167 12.7806 11.269 13.5417 12.5 13.5417C13.7268 13.5417 14.5833 12.8109 14.5833 10.6251C14.5833 9.32343 13.7663 8.33342 12.5 8.33342C11.181 8.33342 10.4167 9.18323 10.4167 10.4167Z" fill="#929AA2"/>
</svg>
